<svg width="108" height="108" viewBox="0 0 108 108" fill="none" xmlns="http://www.w3.org/2000/svg">
<g filter="url(#filter0_d_2_36)">
<path d="M27.623 14.9L30.0813 3.1H77.9153L79.882 14.9H27.623Z" fill="#2C3D5F" stroke="white" stroke-width="0.2"/>
<ellipse cx="54" cy="3" rx="24" ry="2" fill="#C4C4C4"/>
<path d="M81.9 83C81.9 83.3044 81.7276 83.6163 81.3654 83.9323C81.0038 84.2479 80.4646 84.5569 79.7607 84.8541C78.3539 85.4481 76.312 85.9852 73.7814 86.4371C68.7218 87.3406 61.728 87.9 54 87.9C46.272 87.9 39.2782 87.3406 34.2186 86.4371C31.688 85.9852 29.6461 85.4481 28.2393 84.8541C27.5354 84.5569 26.9962 84.2479 26.6346 83.9323C26.2724 83.6163 26.1 83.3044 26.1 83C26.1 82.6956 26.2724 82.3837 26.6346 82.0677C26.9962 81.7521 27.5354 81.4431 28.2393 81.1459C29.6461 80.5519 31.688 80.0148 34.2186 79.5629C39.2782 78.6594 46.272 78.1 54 78.1C61.728 78.1 68.7218 78.6594 73.7814 79.5629C76.312 80.0148 78.3539 80.5519 79.7607 81.1459C80.4646 81.4431 81.0038 81.7521 81.3654 82.0677C81.7276 82.3837 81.9 82.6956 81.9 83Z" fill="#2C3D5F" stroke="white" stroke-width="0.2"/>
<path d="M33.0659 81.9L30.1517 75.1H77.8581L75.4295 81.9H33.0659Z" fill="#2C3D5F" stroke="white" stroke-width="0.2"/>
<mask id="path-5-inside-1_2_36" fill="white">
<path d="M17 77.625L30 75L33 82L26.5 84L17 77.625Z"/>
</mask>
<path d="M17 77.625L30 75L33 82L26.5 84L17 77.625Z" fill="#2C3D5F"/>
<path d="M17 77.625L16.9604 77.429L16.4904 77.5239L16.8886 77.7911L17 77.625ZM30 75L30.1838 74.9212L30.1198 74.7718L29.9604 74.804L30 75ZM33 82L33.0588 82.1912L33.2715 82.1257L33.1838 81.9212L33 82ZM26.5 84L26.3886 84.1661L26.4677 84.2192L26.5588 84.1912L26.5 84ZM17.0396 77.821L30.0396 75.196L29.9604 74.804L16.9604 77.429L17.0396 77.821ZM29.8162 75.0788L32.8162 82.0788L33.1838 81.9212L30.1838 74.9212L29.8162 75.0788ZM32.9412 81.8088L26.4412 83.8088L26.5588 84.1912L33.0588 82.1912L32.9412 81.8088ZM26.6114 83.8339L17.1114 77.4589L16.8886 77.7911L26.3886 84.1661L26.6114 83.8339Z" fill="white" mask="url(#path-5-inside-1_2_36)"/>
<mask id="path-7-inside-2_2_36" fill="white">
<path d="M90 78L78 75L75.5 82L81 84L90 78Z"/>
</mask>
<path d="M90 78L78 75L75.5 82L81 84L90 78Z" fill="#2C3D5F"/>
<path d="M90 78L90.0485 77.806L90.4871 77.9156L90.1109 78.1664L90 78ZM78 75L77.8117 74.9327L77.8726 74.762L78.0485 74.806L78 75ZM75.5 82L75.4317 82.188L75.2448 82.12L75.3117 81.9327L75.5 82ZM81 84L81.1109 84.1664L81.0267 84.2225L80.9317 84.188L81 84ZM89.9515 78.194L77.9515 75.194L78.0485 74.806L90.0485 77.806L89.9515 78.194ZM78.1883 75.0673L75.6883 82.0673L75.3117 81.9327L77.8117 74.9327L78.1883 75.0673ZM75.5683 81.812L81.0683 83.812L80.9317 84.188L75.4317 82.188L75.5683 81.812ZM80.8891 83.8336L89.8891 77.8336L90.1109 78.1664L81.1109 84.1664L80.8891 83.8336Z" fill="white" mask="url(#path-7-inside-2_2_36)"/>
<path d="M17.1101 77.872L21.7314 17.2654L33.89 12.1547L29.9049 74.9193L17.1101 77.872Z" fill="#6C6781" stroke="white" stroke-width="0.2"/>
<path d="M89.8904 77.8695L85.5409 17.2637L74.1103 12.1588L78.0952 74.9207L89.8904 77.8695Z" fill="#6C6781" stroke="white" stroke-width="0.2"/>
<path d="M30.1066 74.9L34.0939 12.1H73.9061L77.8934 74.9H30.1066Z" fill="#2C3D5F" stroke="white" stroke-width="0.2"/>
<rect x="73.1412" y="84.3457" width="1.8" height="19.8" rx="0.9" transform="rotate(-42 73.1412 84.3457)" fill="#2C3D5F" stroke="white" stroke-width="0.2"/>
<rect x="-0.141228" y="0.00740142" width="1.8" height="19.8" rx="0.9" transform="matrix(-0.743145 -0.669131 -0.669131 0.743145 34.6277 84.2457)" fill="#2C3D5F" stroke="white" stroke-width="0.2"/>
<rect x="67.0208" y="86.428" width="1.8" height="11.8" rx="0.9" transform="rotate(-13 67.0208 86.428)" fill="#6C6781" stroke="white" stroke-width="0.2"/>
<rect x="-0.119932" y="0.0749419" width="1.8" height="11.8" rx="0.9" transform="matrix(-0.97437 -0.224951 -0.224951 0.97437 40.4282 86.4248)" fill="#6C6781" stroke="white" stroke-width="0.2"/>
<ellipse cx="54" cy="3" rx="17" ry="1" fill="#6C6781"/>
<ellipse cx="53.5" cy="3.5" rx="13.5" ry="0.5" fill="#E5E5E5"/>
</g>
<defs>
<filter id="filter0_d_2_36" x="0" y="0" width="108" height="108" filterUnits="userSpaceOnUse" color-interpolation-filters="sRGB">
<feFlood flood-opacity="0" result="BackgroundImageFix"/>
<feColorMatrix in="SourceAlpha" type="matrix" values="0 0 0 0 0 0 0 0 0 0 0 0 0 0 0 0 0 0 127 0" result="hardAlpha"/>
<feOffset dy="4"/>
<feGaussianBlur stdDeviation="2"/>
<feComposite in2="hardAlpha" operator="out"/>
<feColorMatrix type="matrix" values="0 0 0 0 0 0 0 0 0 0 0 0 0 0 0 0 0 0 0.25 0"/>
<feBlend mode="normal" in2="BackgroundImageFix" result="effect1_dropShadow_2_36"/>
<feBlend mode="normal" in="SourceGraphic" in2="effect1_dropShadow_2_36" result="shape"/>
</filter>
</defs>
</svg>
